<svg id="visual" viewBox="0 0 900 600" width="900" height="600" xmlns="http://www.w3.org/2000/svg" xmlns:xlink="http://www.w3.org/1999/xlink" version="1.1"><path d="M708 600L705.5 580C703 560 698 520 696.7 480C695.3 440 697.7 400 697.3 360C697 320 694 280 682.7 240C671.3 200 651.7 160 644.7 120C637.7 80 643.3 40 646.2 20L649 0L900 0L900 20C900 40 900 80 900 120C900 160 900 200 900 240C900 280 900 320 900 360C900 400 900 440 900 480C900 520 900 560 900 580L900 600Z" fill="#FFFFFF" stroke-linecap="round" stroke-linejoin="miter"></path></svg>